<svg xmlns="http://www.w3.org/2000/svg" viewBox="0 0 512 512" role="img" aria-labelledby="title desc">
  <title id="title">Logo Agente Financeiro</title>
  <desc id="desc">Moeda laranja com cifrao central inteiro</desc>
  <defs>
    <linearGradient id="ring" x1="72" y1="48" x2="426" y2="462" gradientUnits="userSpaceOnUse">
      <stop offset="0" stop-color="#ffc24a"/>
      <stop offset="0.5" stop-color="#ff8b19"/>
      <stop offset="1" stop-color="#f06408"/>
    </linearGradient>
    <linearGradient id="coinFace" x1="130" y1="90" x2="350" y2="425" gradientUnits="userSpaceOnUse">
      <stop offset="0" stop-color="#ffb43a"/>
      <stop offset="0.55" stop-color="#ff961f"/>
      <stop offset="1" stop-color="#df670a"/>
    </linearGradient>
  </defs>

  <circle cx="256" cy="256" r="242" fill="#fffdf9" stroke="#050505" stroke-width="10"/>
  <circle cx="256" cy="256" r="216" fill="none" stroke="url(#ring)" stroke-width="34"/>
  <circle cx="256" cy="256" r="190" fill="none" stroke="#050505" stroke-width="8"/>

  <g transform="translate(0 0)" stroke="#050505" stroke-width="14" stroke-linejoin="round" stroke-linecap="round" fill="url(#coinFace)">
    <path d="M247 76h38v59c34 6 61 22 82 49l-35 31c-14-17-29-28-47-33v58c66 15 100 47 100 95 0 51-39 87-100 94v57h-38v-56c-45-6-82-27-111-62l38-34c20 24 44 39 73 45v-72c-64-15-96-46-96-92 0-48 37-80 96-83V76Zm38 240v63c30-6 47-22 47-43 0-17-14-32-47-40Zm-38-136c-29 5-44 18-44 38 0 18 13 31 44 41v-79Z"/>
  </g>

  <path d="M82 128C152 51 279 27 384 84" fill="none" stroke="#ffe8b7" stroke-width="12" stroke-linecap="round" opacity="0.76"/>
  <path d="M380 78c31 16 58 41 77 74" fill="none" stroke="#fff6df" stroke-width="8" stroke-linecap="round" opacity="0.9"/>
  <path d="M79 357c55 84 171 121 276 87" fill="none" stroke="#a94304" stroke-width="8" stroke-linecap="round" opacity="0.38"/>
</svg>
